<svg version="1.1" id="Layer_1" xmlns="http://www.w3.org/2000/svg" xmlns:xlink="http://www.w3.org/1999/xlink" x="0px" y="0px"
	 width="32px" height="32px" viewBox="0 0 64 64" enable-background="new 0 0 64 64" xml:space="preserve">
<path fill="#1C75BC" d="M61,56.918C61,59.442,59.442,61,56.92,61H7.081C4.557,61,3,59.442,3,56.918V7.082C3,4.557,4.557,3,7.081,3
	H56.92C59.442,3,61,4.557,61,7.082V56.918z"/>
<path fill="#A7A9AC" d="M47,35.986C47,36.546,46.546,37,45.986,37H17.014C16.454,37,16,36.546,16,35.986V7.014
	C16,6.454,16.454,6,17.014,6h28.973C46.546,6,47,6.454,47,7.014V35.986z"/>
<path fill="#17639F" d="M59.906,4.094L4.094,59.906C4.799,60.61,5.819,61,7.081,61H56.92c2.522,0,4.08-1.558,4.08-4.082V7.082
	C61,5.819,60.61,4.799,59.906,4.094z"/>
<path fill="#054372" d="M54,56.324C54,57.023,53.091,58,52.393,58H15.608C14.909,58,14,57.023,14,56.324V19.54
	c0-0.699,0.909-1.54,1.608-1.54h36.784C53.091,18,54,18.841,54,19.54V56.324z"/>
<path fill="#D1D3D4" d="M49,43.879C49,44.498,48.498,45,47.879,45H15.121C14.502,45,14,44.498,14,43.879V11.121
	C14,10.502,14.502,10,15.121,10h32.758C48.498,10,49,10.502,49,11.121V43.879z"/>
<path fill="#FFFFFF" d="M52,54.324C52,55.023,51.091,56,50.393,56H13.608C12.909,56,12,55.023,12,54.324V17.54
	c0-0.699,0.909-1.54,1.608-1.54h36.784C51.091,16,52,16.841,52,17.54V54.324z"/>
<path fill="#D1D3D4" d="M48,27.333C48,28.825,46.519,30,45.028,30H18.973C17.481,30,16,28.825,16,27.333v-0.496
	C16,25.346,17.481,24,18.973,24h26.056C46.519,24,48,25.346,48,26.837V27.333z"/>
</svg>
