<?xml version="1.0" encoding="utf-8"?>
<!-- Generator: Adobe Illustrator 15.1.0, SVG Export Plug-In . SVG Version: 6.00 Build 0)  -->
<!DOCTYPE svg PUBLIC "-//W3C//DTD SVG 1.1//EN" "http://www.w3.org/Graphics/SVG/1.1/DTD/svg11.dtd">
<svg version="1.1" id="Layer_1" xmlns="http://www.w3.org/2000/svg" xmlns:xlink="http://www.w3.org/1999/xlink" x="0px" y="0px"
	 width="32px" height="32px" viewBox="0 0 64 64" enable-background="new 0 0 64 64" xml:space="preserve">
<path fill="#1C75BC" d="M62,57.289C62,59.852,59.852,62,57.291,62H6.709C4.148,62,2,59.852,2,57.289V6.71C2,4.148,4.148,2,6.709,2
	h50.582C59.852,2,62,4.148,62,6.71V57.289z"/>
<path fill="#17629E" d="M60.605,3.395L3.395,60.605C4.252,61.463,5.429,62,6.709,62h50.582C59.852,62,62,59.852,62,57.289V6.71
	C62,5.429,61.463,4.252,60.605,3.395z"/>
<g>
	<path fill="#FFFFFF" d="M13.065,13.242c-5.636,5.635-5.398,14.54,0.237,20.175L23.61,43.724l19.939-19.938L33.241,13.478
		C27.605,7.841,18.705,7.605,13.065,13.242z"/>
	<circle fill="#FFFFFF" cx="36.025" cy="49.073" r="4.575"/>
	<path fill="#054372" d="M40.146,47.126c-0.216-0.464-0.503-0.904-0.887-1.288c-1.784-1.786-4.684-1.786-6.471,0
		c-1.788,1.787-1.786,4.687,0.001,6.471c0.383,0.385,0.824,0.669,1.287,0.887L40.146,47.126z"/>
	<path fill="#F1F2F2" d="M43.549,23.785L23.61,43.724l7.477,7.479l24.922-24.925C53.258,29.03,47.678,27.914,43.549,23.785z"/>
	<path fill="#F1F2F2" d="M23.61,43.724l19.939-19.938l7.477,7.479L26.103,56.187C28.856,53.434,27.74,47.854,23.61,43.724z"/>
	
		<rect x="20.532" y="40.975" transform="matrix(0.7071 -0.7071 0.7071 0.7071 -17.3887 41.7315)" fill="#054372" width="42.295" height="1.762"/>
	<path fill="#FFFFFF" d="M9.22,9.394c-1.375,1.378-1.375,3.605-0.001,4.98c1.376,1.375,3.606,1.375,4.981,0
		c1.374-1.374,1.374-3.603-0.001-4.98C12.824,8.02,10.595,8.02,9.22,9.394z M13.104,13.281c-0.769,0.768-2.02,0.768-2.789-0.002
		c-0.769-0.77-0.769-2.019,0-2.79c0.769-0.768,2.021-0.768,2.788,0C13.873,11.26,13.873,12.511,13.104,13.281z"/>
</g>
</svg>
