<?xml version="1.0" encoding="utf-8"?>
<!-- Generator: Adobe Illustrator 15.1.0, SVG Export Plug-In . SVG Version: 6.00 Build 0)  -->
<!DOCTYPE svg PUBLIC "-//W3C//DTD SVG 1.1//EN" "http://www.w3.org/Graphics/SVG/1.1/DTD/svg11.dtd">
<svg version="1.1" id="Layer_1" xmlns="http://www.w3.org/2000/svg" xmlns:xlink="http://www.w3.org/1999/xlink" x="0px" y="0px"
	 width="32px" height="32px" viewBox="0 0 64 64" enable-background="new 0 0 64 64" xml:space="preserve">
<path fill="#1C75BC" d="M62,57.012C62,59.545,59.545,62,57.014,62H6.988C4.455,62,2,59.545,2,57.012V6.989C2,4.455,4.455,2,6.988,2
	h50.026C59.545,2,62,4.455,62,6.989V57.012z"/>
<circle fill="#054372" cx="31.74" cy="18.723" r="9.126"/>
<path fill="#17629E" d="M60.456,3.544L3.544,60.456C4.475,61.387,5.721,62,6.988,62h50.026C59.545,62,62,59.545,62,57.012V6.989
	C62,5.722,61.386,4.475,60.456,3.544z"/>
<path fill="#054372" d="M52.215,54c0,0,0.012-0.311,0.012-0.393c0-10.764-8.726-19.561-19.486-19.561
	c-10.762,0-19.487,8.834-19.487,19.597c0,0.083,0.012,0.356,0.013,0.356H52.215z"/>
<circle fill="#FFFFFF" cx="30.767" cy="17.75" r="9.127"/>
<path fill="#FFFFFF" d="M50.241,52c0,0,0.012-0.297,0.012-0.381c0-10.762-8.726-19.553-19.486-19.553
	c-10.762,0-19.486,8.824-19.486,19.587c0,0.083,0.012,0.347,0.013,0.347H50.241z"/>
</svg>
