<?xml version="1.0" encoding="utf-8"?>
<!-- Generator: Adobe Illustrator 15.1.0, SVG Export Plug-In . SVG Version: 6.00 Build 0)  -->
<!DOCTYPE svg PUBLIC "-//W3C//DTD SVG 1.1//EN" "http://www.w3.org/Graphics/SVG/1.1/DTD/svg11.dtd">
<svg version="1.1" id="Layer_1" xmlns="http://www.w3.org/2000/svg" xmlns:xlink="http://www.w3.org/1999/xlink" x="0px" y="0px"
	 width="32px" height="32px" viewBox="0 0 64 64" enable-background="new 0 0 64 64" xml:space="preserve">
<path fill="#1C75BC" d="M61,56.548C61,59.034,59.034,61,56.55,61H7.452C4.965,61,3,59.034,3,56.548V7.453C3,4.965,4.965,3,7.452,3
	H56.55C59.034,3,61,4.965,61,7.453V56.548z"/>
<path fill="#FFFFFF" d="M34,15.294C34,17.341,32.341,19,30.294,19H10.706C8.659,19,7,17.341,7,15.294v-0.588
	C7,12.659,8.659,11,10.706,11h19.588C32.341,11,34,12.659,34,14.706V15.294z"/>
<path fill="#054372" d="M30.23,18H10.529c-1.771,0-3.158-1.055-3.525-2.715C6.946,15.544,7,16,7,16.276v0.333
	C7,18.656,8.482,20,10.529,20H30.23c2.046,0,3.77-1.344,3.77-3.391v-0.333c0-0.276-0.066-0.732-0.125-0.992
	C33.51,16.945,32.001,18,30.23,18z"/>
<path fill="#1969A9" d="M59.707,4.293L4.293,59.706C5.096,60.509,6.208,61,7.452,61H56.55c2.484,0,4.45-1.966,4.45-4.452V7.453
	C61,6.209,60.509,5.096,59.707,4.293z"/>
<path fill="#054372" d="M41.85,34H22.149c-1.77,0-3.468-1.308-3.834-2.969C18.257,31.291,18,31.494,18,31.771v0.333
	C18,34.149,20.103,36,22.149,36H41.85c2.047,0,4.15-1.851,4.15-3.896v-0.333c0-0.276-0.255-0.479-0.313-0.739
	C45.319,32.692,43.62,34,41.85,34z"/>
<path fill="#054372" d="M53.471,52H33.77c-1.771,0-3.278-1.092-3.646-2.754C30.066,49.506,30,49.925,30,50.201v0.332
	C30,52.58,31.723,54,33.77,54h19.701C55.517,54,57,52.58,57,50.533v-0.332c0-0.276,0.055-0.695-0.004-0.955
	C56.629,50.908,55.24,52,53.471,52z"/>
<path fill="#FFFFFF" d="M46,30.167C46,32.213,43.896,34,41.85,34H22.149C20.103,34,18,32.213,18,30.167v-0.335
	C18,27.786,20.103,26,22.149,26H41.85c2.047,0,4.15,1.786,4.15,3.833V30.167z"/>
<path fill="#FFFFFF" d="M57,48.293C57,50.34,55.34,52,53.293,52H33.707C31.66,52,30,50.34,30,48.293v-0.586
	C30,45.66,31.66,44,33.707,44h19.586C55.34,44,57,45.66,57,47.707V48.293z"/>
</svg>

