<?xml version="1.0" encoding="utf-8"?>
<!-- Generator: Adobe Illustrator 19.0.0, SVG Export Plug-In . SVG Version: 6.00 Build 0)  -->
<!DOCTYPE svg PUBLIC "-//W3C//DTD SVG 1.1//EN" "http://www.w3.org/Graphics/SVG/1.1/DTD/svg11.dtd">
<svg version="1.1" id="Layer_1" xmlns="http://www.w3.org/2000/svg" xmlns:xlink="http://www.w3.org/1999/xlink" x="0px" y="0px"
	 width="32px" height="32px" viewBox="0 0 64 64" enable-background="new 0 0 64 64" xml:space="preserve">
<path fill="#1C75BC" d="M62,57.567C62,60.158,60.158,62,57.569,62H6.432C3.842,62,2,60.158,2,57.567V6.433C2,3.842,3.842,2,6.432,2
	h51.138C60.158,2,62,3.842,62,6.433V57.567z"/>
<path fill="#17629E" d="M60.756,3.116L3.051,60.756C3.9,61.604,5.136,62,6.431,62h51.139C60.158,62,62,60.158,62,57.567V6.433
	C62,5.137,61.604,3.964,60.756,3.116z"/>
<path fill="#054372" d="M15.511,27.891c2.217,1.552,4.901,1.937,7.325,1.285l21.527,21.527c1.811,1.813,4.71,1.852,6.522,0.04
	c1.813-1.813,1.772-4.713-0.04-6.524L29.144,22.513c0.705-3.339-0.582-6.93-3.557-9.012c-2.595-1.816-5.829-2.027-8.536-0.849
	l5.724,4.005l-5.26,7.513l-5.725-4.009C11.613,23.106,12.916,26.073,15.511,27.891z M49.278,49.132
	c-0.922,0.923-2.415,0.923-3.337,0c-0.922-0.922-0.922-2.417,0-3.337c0.922-0.922,2.415-0.922,3.337,0
	C50.2,46.715,50.2,48.21,49.278,49.132z"/>
<path fill="#FFFFFF" d="M14.977,27.391c2.217,1.552,4.901,1.936,7.325,1.284l21.527,21.527c1.811,1.813,4.71,1.852,6.522,0.039
	s1.773-4.712-0.039-6.524L28.61,22.013c0.705-3.339-0.582-6.93-3.557-9.013c-2.596-1.816-5.829-2.027-8.536-0.849l5.724,4.005
	l-5.26,7.513l-5.725-4.009C11.08,22.605,12.382,25.572,14.977,27.391z M48.744,48.632c-0.922,0.922-2.415,0.922-3.337,0
	s-0.922-2.417,0-3.337c0.922-0.922,2.415-0.922,3.337,0C49.666,46.215,49.666,47.71,48.744,48.632z"/>
</svg>

